<svg width="48" height="35" viewBox="0 0 48 35" fill="none" xmlns="http://www.w3.org/2000/svg">
<path d="M11.4604 34.744C8.90038 34.744 6.75638 34.136 5.02838 32.92C3.30038 31.704 2.02038 30.136 1.18838 28.216C0.420375 26.296 0.036375 24.248 0.036375 22.072C0.036375 18.872 0.740375 15.864 2.14838 13.048C3.62038 10.168 5.44438 7.672 7.62038 5.56C9.79638 3.448 12.0364 1.88 14.3404 0.855999L21.9244 6.232C20.1964 7 18.5324 7.928 16.9324 9.016C15.3324 10.104 13.8924 11.288 12.6124 12.568C11.3964 13.848 10.4684 15.16 9.82838 16.504L10.2124 16.792C10.7244 16.536 11.2364 16.344 11.7484 16.216C12.2604 16.088 12.9324 16.024 13.7644 16.024C15.0444 16.024 16.3244 16.344 17.6044 16.984C18.9484 17.56 20.0684 18.488 20.9644 19.768C21.8604 20.984 22.3084 22.584 22.3084 24.568C22.3084 26.808 21.7964 28.696 20.7724 30.232C19.7484 31.768 18.4044 32.92 16.7404 33.688C15.1404 34.392 13.3804 34.744 11.4604 34.744ZM36.9964 34.744C34.3724 34.744 32.1964 34.136 30.4684 32.92C28.7404 31.704 27.4604 30.136 26.6284 28.216C25.8604 26.296 25.4764 24.248 25.4764 22.072C25.4764 18.872 26.1804 15.864 27.5884 13.048C29.0604 10.168 30.8844 7.672 33.0604 5.56C35.2364 3.448 37.5084 1.88 39.8764 0.855999L47.3644 6.232C45.6364 7 43.9724 7.928 42.3724 9.016C40.7724 10.104 39.3324 11.288 38.0524 12.568C36.8364 13.848 35.9084 15.16 35.2684 16.504L35.7484 16.792C36.1964 16.536 36.6764 16.344 37.1884 16.216C37.7004 16.088 38.4044 16.024 39.3004 16.024C40.5804 16.024 41.8604 16.344 43.1404 16.984C44.4204 17.56 45.5084 18.488 46.4044 19.768C47.3004 20.984 47.7484 22.584 47.7484 24.568C47.7484 26.808 47.2364 28.696 46.2124 30.232C45.1884 31.768 43.8444 32.92 42.1804 33.688C40.5804 34.392 38.8524 34.744 36.9964 34.744Z" fill="black"/>
</svg>
